<svg xmlns="http://www.w3.org/2000/svg" viewBox="0 0 500 500"><g id="freepik--Table--inject-74"><path d="M470.76,482.19c0,.15-100.19.26-223.75.26s-223.77-.11-223.77-.26,100.17-.26,223.77-.26S470.76,482.05,470.76,482.19Z" style="fill:#263238"></path></g><g id="freepik--Characters--inject-74"><path d="M373.57,281.47c6.39-3.58,12.64-6.14,18.62-6.78L406.6,254l39,26.71-12,47.12,6.89,69.48,14.41,85.49H323.7l-1.44-40.5L298.7,309.4,329.59,296Z" style="fill:#F52268"></path><path d="M427.16,125.09s2.88,25.11,3.83,32c1,7.61,3.78,44.76,3.78,44.76l-28.2,54.26a30.58,30.58,0,0,0,17.59,25.48c12,5.7,20.47-1.05,20.47-1.05s24-59.07,27.21-76.25S451,119.24,451,119.24Z" style="fill:#ffbf9d"></path><path d="M298.52,222.16a8.58,8.58,0,0,1-6.82-15.65,8.93,8.93,0,0,1,4.7-16.28,10.68,10.68,0,0,1,14.09-11.72,12,12,0,0,1,14.44-3.18,8.54,8.54,0,0,1,10.22,12.74" style="fill:#263238"></path><path d="M362.48,217.29c-2.26-20.23-13.93-36.84-34.09-34l-1.85.37a36.39,36.39,0,0,0-29,39.93c2.06,17.52,4.56,36.85,6.53,46.08,4.06,19.11,23.82,18.25,23.82,18.25l.94,5.06a22.57,22.57,0,0,0,30.37,16.91h0a22.58,22.58,0,0,0,14.1-24.57Z" style="fill:#ffbf9d"></path><path d="M327.71,287.92a47.36,47.36,0,0,0,23.63-12.37s-2.78,15.27-22.23,17.37Z" style="fill:#ff9a6c"></path><path d="M306,240a2.8,2.8,0,0,0,3.19,2.23,2.67,2.67,0,0,0,2.33-3,2.8,2.8,0,0,0-3.19-2.24A2.68,2.68,0,0,0,306,240Z" style="fill:#263238"></path><path d="M303.53,232.13c.41.29,2.17-1.66,5.12-2.24s5.39.46,5.64,0c.12-.19-.35-.76-1.43-1.26a7.64,7.64,0,0,0-4.6-.47,7.38,7.38,0,0,0-4,2.23C303.5,231.29,303.33,232,303.53,232.13Z" style="fill:#263238"></path><path d="M333,235.18a2.79,2.79,0,0,0,3.19,2.23,2.66,2.66,0,0,0,2.32-3,2.78,2.78,0,0,0-3.18-2.23A2.67,2.67,0,0,0,333,235.18Z" style="fill:#263238"></path><path d="M332.57,226.89c.41.29,2.18-1.66,5.12-2.24s5.39.46,5.64,0c.13-.19-.34-.76-1.43-1.26a7.72,7.72,0,0,0-4.6-.47,7.38,7.38,0,0,0-4,2.23C332.55,226.06,332.37,226.76,332.57,226.89Z" style="fill:#263238"></path><path d="M326.25,250.85c0-.17-1.91-.12-4.95.1-.77.07-1.51.06-1.74-.42a4,4,0,0,1,.06-2.33q.51-2.94,1.07-6.17c1.46-8.77,2.35-15.91,2-16s-1.82,7-3.28,15.77l-1,6.19a4.37,4.37,0,0,0,.2,3,1.93,1.93,0,0,0,1.45.86,5.29,5.29,0,0,0,1.31-.08C324.42,251.38,326.27,251,326.25,250.85Z" style="fill:#263238"></path><path d="M329.67,217.05c.54.67,2.9-.65,6-1.37s5.81-.73,5.94-1.56c0-.39-.64-1-1.88-1.33a9.6,9.6,0,0,0-4.86,0,9.31,9.31,0,0,0-4.22,2.28C329.74,215.92,329.43,216.73,329.67,217.05Z" style="fill:#263238"></path><path d="M301.08,221.78c.76.54,3.05-.64,6-1.25s5.49-.63,5.92-1.45c.18-.39-.35-1-1.55-1.39a9.71,9.71,0,0,0-5.08-.13,9.58,9.58,0,0,0-4.49,2.3C301,220.75,300.74,221.51,301.08,221.78Z" style="fill:#263238"></path><path d="M303,194.16a4.52,4.52,0,0,1,.27-1,8.62,8.62,0,0,1,5.77-5,32.45,32.45,0,0,1,4.21-2.84,11.62,11.62,0,0,1,19.19-4.69c.56,0,1.11-.05,1.67-.06a11.87,11.87,0,0,1,18.7,1.46,8.63,8.63,0,0,1,12,10.4c2.63.87,5.11,2.81,5.7,5.51.56,2.54-1.28,5.51-3.79,5.7,1.71,6.18,2.52,13.71,3.49,20.29.69,4.63-4.61,8.52-4.38,11.72,1.13,16.29-5.82,8.55-14.39-23.94q-.57-.28-1.17-.63c-.81-.49-1.13-1.24-1.87-1.83s-2.15-.17-3.23.17a8.52,8.52,0,0,1-9.87-4.26c-.68,1.65-3,2-4.62,1.39s-2.92-2-4.33-3.1-3.26-1.95-4.94-1.35c-.94.33-1.73,1.09-2.73,1.19-1.75.2-3-1.65-3.59-3.31-.51-1.39-1-3-2.15-3.84a10.13,10.13,0,0,0-3.52-.28c-.63.21-1.27.47-1.88.69a6.75,6.75,0,0,1-.91.24,9.38,9.38,0,0,0-1.1.72c-5.22,3.95-7.87,17-7.87,17C295.69,206.91,298.56,199.75,303,194.16Z" style="fill:#263238"></path><path d="M366.61,192.74s0-.07-.16-.17a5.12,5.12,0,0,0-.52-.43,7.24,7.24,0,0,0-2.34-1.08,8.49,8.49,0,0,0-4-.05,7.76,7.76,0,0,0-4.5,2.79l.38,0a10.59,10.59,0,0,0-6.73-5.47,13.31,13.31,0,0,0-5-.5,16.1,16.1,0,0,0-5.1,1.4,26.68,26.68,0,0,0-7.95,5.88l.41,0a11.9,11.9,0,0,0-7.15-5,11.47,11.47,0,0,0-10.67,3,8.46,8.46,0,0,0-.81.91,1.69,1.69,0,0,0-.23.35s.38-.43,1.16-1.13a11.84,11.84,0,0,1,3.79-2.31,11.16,11.16,0,0,1,6.66-.41,11.56,11.56,0,0,1,6.81,4.86l.18.28.23-.24a26.68,26.68,0,0,1,7.8-5.74,15.93,15.93,0,0,1,4.92-1.36,12.66,12.66,0,0,1,4.78.46A10.16,10.16,0,0,1,355,194l.15.33.22-.29a7.54,7.54,0,0,1,4.23-2.71,8.43,8.43,0,0,1,3.9,0A8.84,8.84,0,0,1,366.61,192.74Z" style="fill:#455a64"></path><path d="M312.6,195.29a4.56,4.56,0,0,0,.33.46,12.73,12.73,0,0,1,.8,1.41c.31.64.64,1.45,1,2.39a8.34,8.34,0,0,0,1.93,3,2.74,2.74,0,0,0,2,.61,10,10,0,0,0,2.19-.58,4.5,4.5,0,0,1,2.26-.29,6.07,6.07,0,0,1,2.2,1.1c.71.5,1.39,1.1,2.12,1.69a9.52,9.52,0,0,0,2.38,1.7,6.21,6.21,0,0,0,3.06.38,4.89,4.89,0,0,0,1.56-.42,2.21,2.21,0,0,0,1.21-1.23l-.49,0a7.39,7.39,0,0,0,3.28,3.57,9.3,9.3,0,0,0,5,1,11.48,11.48,0,0,0,2.11-.35,4.61,4.61,0,0,1,1.91-.38,2.76,2.76,0,0,1,1.62.83,13.58,13.58,0,0,0,1.64,1.21,10.48,10.48,0,0,0,7.37,1.81,9.62,9.62,0,0,0,5.61-3.87,9.85,9.85,0,0,0,1.87-5.55l-.19.18a5.23,5.23,0,0,0,4.05-1.87,4.93,4.93,0,0,0,1.14-3.17,4.84,4.84,0,0,0-.43-2.08,3.15,3.15,0,0,0-.26-.48q-.1-.16-.12-.15a5.71,5.71,0,0,1,.61,2.7,4.84,4.84,0,0,1-1.17,3,4.92,4.92,0,0,1-3.81,1.68h-.19v.19a9.67,9.67,0,0,1-1.85,5.3,9.21,9.21,0,0,1-5.35,3.63,10,10,0,0,1-7-1.76,12.8,12.8,0,0,1-1.57-1.17,3.3,3.3,0,0,0-1.92-1,3.23,3.23,0,0,0-1.12.08l-1,.31a10.31,10.31,0,0,1-2,.33,8.75,8.75,0,0,1-4.68-.94,7.54,7.54,0,0,1-1.83-1.42,7.63,7.63,0,0,1-1.22-1.89l-.28-.57-.22.59a2.7,2.7,0,0,1-2.33,1.32,5.77,5.77,0,0,1-2.81-.34,9.45,9.45,0,0,1-2.27-1.6c-.72-.59-1.41-1.18-2.15-1.7a6.36,6.36,0,0,0-2.39-1.14,4.77,4.77,0,0,0-2.46.32,9.14,9.14,0,0,1-2.11.6,2.38,2.38,0,0,1-1.79-.5,8.33,8.33,0,0,1-1.9-2.81c-.43-.92-.79-1.73-1.13-2.36a7.87,7.87,0,0,0-.89-1.39A1.93,1.93,0,0,0,312.6,195.29Z" style="fill:#455a64"></path><path d="M335.69,252.58c2.1,2.68,2.44,6.26.23,8.84a4.92,4.92,0,0,1-7,.19,8.81,8.81,0,0,1-2.15-3.66C329.24,256.36,333.23,254.17,335.69,252.58Z" style="fill:#ff9a6c"></path><path d="M364.71,233.31a5.31,5.31,0,0,1,4.61-6.14c3.64-.37,8,.86,9.26,8.29,2.2,13.18-11.48,12.67-11.57,12.3S365.58,238.83,364.71,233.31Z" style="fill:#ffbf9d"></path><path d="M369.05,242.32c.05,0,.26.12.67.23a2.26,2.26,0,0,0,1.73-.25c1.3-.74,2.11-3.15,1.77-5.53a7.58,7.58,0,0,0-1.19-3.18,2.65,2.65,0,0,0-2-1.47,1.18,1.18,0,0,0-1.25.85c-.11.4,0,.65-.05.68s-.32-.17-.31-.73a1.56,1.56,0,0,1,.38-.92,1.78,1.78,0,0,1,1.22-.54,3.28,3.28,0,0,1,2.74,1.64,8,8,0,0,1,1.41,3.54c.35,2.67-.59,5.38-2.4,6.25a2.46,2.46,0,0,1-2.16,0C369.13,242.63,369,242.35,369.05,242.32Z" style="fill:#ff9a6c"></path><path d="M445.61,280.66a2.49,2.49,0,0,1-.5.3c-.33.17-.82.45-1.48.75a28,28,0,0,1-5.8,2,21.71,21.71,0,0,1-4.23.5,20.83,20.83,0,0,1-4.85-.52,25.9,25.9,0,0,1-9.92-5,34.7,34.7,0,0,1-4.25-3.91,31.26,31.26,0,0,1-3.34-4.23,28.43,28.43,0,0,1-3.82-8.24,25,25,0,0,1-.92-6.06c0-.73,0-1.29,0-1.67a2.23,2.23,0,0,1,.06-.58s0,.81.11,2.24a26.62,26.62,0,0,0,1.06,6,29,29,0,0,0,3.87,8.09,31.11,31.11,0,0,0,3.31,4.14,34.46,34.46,0,0,0,4.2,3.84,25.68,25.68,0,0,0,9.71,5,21.09,21.09,0,0,0,4.74.56,22.81,22.81,0,0,0,4.15-.43,31.27,31.27,0,0,0,5.8-1.79c.66-.28,1.16-.52,1.52-.67A2,2,0,0,1,445.61,280.66Z" style="fill:#263238"></path><path d="M402,300.37a3.54,3.54,0,0,1-.59-.83c-.35-.55-.83-1.36-1.39-2.39a72.23,72.23,0,0,1-3.85-8.28,73.61,73.61,0,0,1-2.77-8.7c-.28-1.13-.48-2.06-.6-2.7a4,4,0,0,1-.13-1c.08,0,.43,1.38,1.08,3.61s1.62,5.3,2.91,8.61,2.65,6.22,3.69,8.3S402,300.33,402,300.37Z" style="fill:#263238"></path><path d="M453.73,127.31l-7.3-21.54c-2.82-8-6.46-15.4-12.6-21.24-2.52-2.39-4.93-4.38-6.39-4.81-4.16-1.22-7.77-1-8.46,3.09,0,0-10.32-3.19-11.68,4.92,0,0-7.57-.6-7.62,6,0,0-5.9-.17-6.81,4a4.84,4.84,0,0,0,1.76,4.66l6.78,6.92.13.57a14,14,0,0,0,8.5,9.92l7.85,1.82L426,123.7l1.64,5.88Z" style="fill:#ffbf9d"></path><path d="M429.41,85.36a2.73,2.73,0,0,0-.49,1.2,3,3,0,0,0,.23,1.5,6.59,6.59,0,0,0,1.13,1.7,12,12,0,0,1,1.55,2.08,3.24,3.24,0,0,1,.09,3,4.3,4.3,0,0,1-2.6,2.1,5.69,5.69,0,0,1-3.57-.26c-4.54-1.91-7.21-6.17-7.26-9.37a13.47,13.47,0,0,1,.2-3.72,3.92,3.92,0,0,1,.4-1.3s-.09.48-.2,1.34a15.29,15.29,0,0,0,0,3.65,10.53,10.53,0,0,0,.55,2.43,11.35,11.35,0,0,0,1.41,2.48,12.27,12.27,0,0,0,5.11,4,5.23,5.23,0,0,0,3.25.26,3.76,3.76,0,0,0,2.31-1.83,2.77,2.77,0,0,0-.05-2.61A12.14,12.14,0,0,0,430,90a6.5,6.5,0,0,1-1.13-1.83,3.17,3.17,0,0,1-.15-1.63,2.18,2.18,0,0,1,.42-.94C429.3,85.41,429.41,85.35,429.41,85.36Z" style="fill:#ff9a6c"></path><path d="M423.37,95.14a3,3,0,0,1,.19,1.12,5.21,5.21,0,0,1-.71,3,4.81,4.81,0,0,1-4.05,2.09,8.61,8.61,0,0,1-5.23-2.06,15.78,15.78,0,0,1-5.76-8.25,10.94,10.94,0,0,1-.4-3.06,3.84,3.84,0,0,1,.12-1.13,19,19,0,0,0,.63,4.09,16.23,16.23,0,0,0,5.73,7.94,8.3,8.3,0,0,0,4.91,2,4.53,4.53,0,0,0,3.75-1.81,5.42,5.42,0,0,0,.81-2.82C423.38,95.55,423.33,95.15,423.37,95.14Z" style="fill:#ff9a6c"></path><path d="M415.54,100.27s.06.07.12.23a3.38,3.38,0,0,1,.17.7,3.28,3.28,0,0,1-.76,2.52,4.15,4.15,0,0,1-3.57,1.55,7.44,7.44,0,0,1-4.37-2,33.72,33.72,0,0,1-5.65-6.5c-.62-.91-1.09-1.67-1.39-2.21a3.16,3.16,0,0,1-.41-.86c.07,0,.79,1.1,2.1,2.86a40,40,0,0,0,5.68,6.31,7.2,7.2,0,0,0,4.07,1.88,4.07,4.07,0,0,0,1.9-.3,4.17,4.17,0,0,0,1.36-1,3.23,3.23,0,0,0,.84-2.27C415.6,100.61,415.49,100.29,415.54,100.27Z" style="fill:#ff9a6c"></path><path d="M435.83,110.62a21.22,21.22,0,0,0-1.69-3,22.91,22.91,0,0,0-2.5-2.31,6,6,0,0,1,4.19,5.26Z" style="fill:#ff9a6c"></path><path d="M401.65,108.89c-.28-3.26-.54-6.63.57-9.71a7.82,7.82,0,0,1,1.35-2.49c.29-.35,11.95-6.64,11.95-6.64,2.19,1.39,2.25,5.45,0,8.22-1.16,1.45-3.28,3.12-4.48,4.52s-.69,3.79.52,5.2c4.29-5.26,10.51-6.41,16.94-4.23" style="fill:#ffbf9d"></path><path d="M428.52,103.76a26.23,26.23,0,0,0-5.08-.87,14.22,14.22,0,0,0-5.72.87,13.88,13.88,0,0,0-6,4.38l-.18.22-.18-.22a5.34,5.34,0,0,1-1.27-3.19,3.44,3.44,0,0,1,.39-1.81,7.53,7.53,0,0,1,1.19-1.42c.87-.86,1.79-1.67,2.67-2.56a8.3,8.3,0,0,0,2.08-3,6.57,6.57,0,0,0,.41-3.24,3.65,3.65,0,0,0-1.48-2.61h.25l-9.19,5-2,1.13-.47.28a1,1,0,0,0-.37.3,7.12,7.12,0,0,0-.57.86,12,12,0,0,0-1.21,3.58,25.6,25.6,0,0,0-.24,5.48c0,.61.05,1.1.07,1.48a3.43,3.43,0,0,1,0,.52,1.74,1.74,0,0,1-.09-.51c0-.33-.1-.83-.15-1.48a23.14,23.14,0,0,1,.08-5.54,11.84,11.84,0,0,1,1.2-3.72,6.6,6.6,0,0,1,.59-.93,1.51,1.51,0,0,1,.47-.39l.48-.3,2-1.15c2.77-1.56,5.86-3.25,9.16-5l.13-.08.13.09a4.11,4.11,0,0,1,1.72,3,7,7,0,0,1-.43,3.5,8.78,8.78,0,0,1-2.21,3.22c-.89.9-1.82,1.71-2.67,2.55a7.25,7.25,0,0,0-1.11,1.3,3,3,0,0,0-.34,1.55,4.91,4.91,0,0,0,1.14,2.91h-.36a13.91,13.91,0,0,1,12.06-5.23,18,18,0,0,1,3.78.68c.42.13.74.25,1,.33S428.53,103.74,428.52,103.76Z" style="fill:#ff9a6c"></path><path d="M333.43,263.47a9.75,9.75,0,0,0,2.43-2.13,6.42,6.42,0,0,0,.39-7.23,6.07,6.07,0,0,0-1-1.26l.3,0c-2.39,1.29-4.45,2.52-5.92,3.42a19,19,0,0,1-2.39,1.4,14.25,14.25,0,0,1,2.2-1.68c1.43-1,3.47-2.28,5.86-3.59l.17-.09.14.13a6.83,6.83,0,0,1,1.05,1.36,7,7,0,0,1,.92,4.38,6.73,6.73,0,0,1-1.47,3.35,6.36,6.36,0,0,1-1.89,1.57A2.2,2.2,0,0,1,333.43,263.47Z" style="fill:#263238"></path><path d="M297.28,318.18l-60.35,51.38-73.19-19-4.25,30.52s40.33,13.1,65.78,21.43a40.54,40.54,0,0,0,37.37-6.41l45-36.59Z" style="fill:#ffbf9d"></path><polygon points="298.7 309.4 257.69 350.53 281.93 380.88 291.46 391.65 320.26 370.39 298.7 309.4" style="fill:#F52268"></polygon><path d="M323.73,453.43c-.14,0-4.31-23.64-9.31-52.86s-8.95-52.92-8.81-52.95,4.31,23.64,9.32,52.87S323.88,453.41,323.73,453.43Z" style="fill:#263238"></path><rect x="355.58" y="355" width="42.41" height="36.77" transform="translate(-72.08 90.71) rotate(-12.54)" style="fill:#fff"></rect><path d="M406.57,356.27a.82.82,0,0,1-.05.23l-.22.64c-.21.6-.51,1.42-.87,2.45s-.86,2.36-1.48,3.84-1.27,3.2-2.13,5-1.73,3.87-2.8,6-2.25,4.38-3.51,6.74c-2.6,4.67-5.66,9.69-9.18,14.77s-7.2,9.67-10.68,13.74c-1.77,2-3.44,3.92-5.1,5.62s-3.2,3.3-4.65,4.71-2.8,2.64-4,3.73-2.22,2-3.09,2.72l-2,1.67-.52.43-.19.13s0-.07.15-.17l.5-.47,1.93-1.74c.84-.75,1.87-1.67,3-2.78s2.51-2.33,3.91-3.79,3-3,4.59-4.74,3.3-3.63,5.06-5.64c3.45-4.06,7.08-8.67,10.62-13.72s6.56-10.06,9.18-14.71c1.27-2.34,2.51-4.56,3.54-6.69s2-4.12,2.86-5.95,1.55-3.52,2.19-5,1.15-2.75,1.56-3.8.73-1.82,1-2.42c.11-.25.19-.45.27-.62A.93.93,0,0,1,406.57,356.27Z" style="fill:#263238"></path><path d="M218.74,339.26c-.23,1.87,23.86,28.22,23.86,28.22l53-45.43,17.23,15.41s-38.3,47.5-50.48,60.31c-9.89,10.4-26.9,15-39.23,2.76s-35.88-41.62-35.88-41.62Z" style="fill:#b5675e"></path><path d="M196.25,482.19c-3.06-19.25-8.22-48.66-8.22-48.66l4-93.12L179.64,310s-23-.76-28.42.06c-2.71.4-39-.42-39-.42L75.7,321.24l-2.41,38.6c-2.61,14.85-.37,17.26,2.63,32l6.22,31.34,2.73,15.12L74,482.19Z" style="fill:#F52268"></path><path d="M73.83,387.73s-25,44.71-38.91,47.13-15.2-24.44-15.2-24.44l30.27-44Z" style="fill:#b5675e"></path><path d="M42.82,318.92S39.1,315,36.53,315.1s-11.24,4.77-12.69,5.33-5.79,4.11-6,6.74.53,28,.41,28.82,17.06,7.27,17.06,7.27,4.94-2.12,6-7.21,1.25-7.72,1.8-9.68,2.91-2.77,3.73-3.6,3.79-2.43,3.22-5.58-2.31-3.86-2.31-3.86,2.39-2.34,1.12-4.63a4.79,4.79,0,0,0-3.65-2.44l1-2.14.43-.46a1.56,1.56,0,0,0-.48-2.49Z" style="fill:#b5675e"></path><path d="M36.24,337.9c.16.2,2.32-1.48,5.42-2.64s5.83-1.38,5.82-1.64-2.86-.42-6.12.83S36.08,337.75,36.24,337.9Z" style="fill:#894943"></path><path d="M35.66,330.23c.13.21,2.13-.85,4.7-1.85s4.76-1.57,4.72-1.82-2.37,0-5,1S35.53,330,35.66,330.23Z" style="fill:#894943"></path><path d="M29.63,324.54a10,10,0,0,0,2.46-1.08,21,21,0,0,1,5.93-2.1,9.29,9.29,0,0,1,6,1c1.37.81,1.91,1.71,2,1.62s-.29-1.1-1.71-2.13a8.94,8.94,0,0,0-6.44-1.38,16.84,16.84,0,0,0-6.09,2.42C30.38,323.81,29.57,324.44,29.63,324.54Z" style="fill:#894943"></path><path d="M39,316.4c-.07.23.85.7,1.32,1.8s.29,2.07.51,2.17.33-.18.47-.66a2.8,2.8,0,0,0-.2-1.88,2.87,2.87,0,0,0-1.3-1.36C39.36,316.26,39,316.3,39,316.4Z" style="fill:#894943"></path><path d="M32.87,344.6c.19-.16-.55-1.29-.61-2.86s.51-2.78.3-2.91-1.27,1.06-1.16,3S32.72,344.79,32.87,344.6Z" style="fill:#894943"></path><path d="M25.61,337.59c.2-.13-.15-1,.14-2.07s1-1.68.85-1.9-.35-.07-.73.2a2.75,2.75,0,0,0-1,1.49,2.63,2.63,0,0,0,.15,1.76C25.27,337.49,25.52,337.65,25.61,337.59Z" style="fill:#894943"></path><path d="M21.34,333.19c.23-.06-.1-1.59.67-3.24s2.09-2.43,2-2.65-.47-.05-1,.3a4.57,4.57,0,0,0-1.71,2,4.52,4.52,0,0,0-.36,2.6C21,332.88,21.24,333.23,21.34,333.19Z" style="fill:#894943"></path><path d="M36.71,361.68l7,34.67s8.11,9.08,4.55,20.61-12.94,19.72-20.86,19.33S17.14,426,15.26,418.61s3-62.62,3-62.62Z" style="fill:#b5675e"></path><path d="M37.21,362.38a9,9,0,0,0,.12,1.9c.14,1.22.37,3,.74,5.13.71,4.32,2,10.24,3.58,16.72a58,58,0,0,0,2.69,9.05c1.15,2.68,2.32,5,3,7a17.61,17.61,0,0,1,1,6.86,1.55,1.55,0,0,0,.14-.48,6.64,6.64,0,0,0,.19-1.41A14.81,14.81,0,0,0,48,402c-.66-2.11-1.78-4.48-2.87-7.13a62.93,62.93,0,0,1-2.6-9c-1.61-6.46-2.95-12.34-3.81-16.62q-.6-3-1-5.07A7.74,7.74,0,0,0,37.21,362.38Z" style="fill:#894943"></path><path d="M43,373.36s12.59-24.14,16.71-31.64c8.56-15.56,15.81-20.09,15.81-20.09l2.75,63.86-8.3,18.28Z" style="fill:#F52268"></path><g style="opacity:0.30000000000000004"><path d="M192.28,458.21c-10-25.52-14.88-59.31-24.85-84.83l-9.15.39c-1,19.72-1.05,44.27,1.21,58.09,2.67,16.27,12.36,28.17,28.75,30,1.17.14,3.76-.11,4.31-1.15A8.29,8.29,0,0,0,192.28,458.21Z"></path></g><path d="M81.26,348.67s0,.08-.06.23-.14.39-.24.65q-.34.92-1,2.49c-.21.54-.45,1.14-.7,1.79s-.45,1.4-.7,2.18-.51,1.61-.79,2.5-.46,1.85-.71,2.85a65.6,65.6,0,0,0-1.88,14.34,102.21,102.21,0,0,0,1.18,17.69c1.89,12.47,4.48,23.63,6,31.75.81,4.06,1.44,7.35,1.84,9.63l.45,2.62c.05.28.08.5.11.69a.86.86,0,0,1,0,.24,1,1,0,0,1-.07-.23l-.16-.68c-.13-.64-.32-1.51-.55-2.6-.49-2.31-1.17-5.58-2-9.6-1.66-8.1-4.31-19.23-6.21-31.74a100.1,100.1,0,0,1-1.14-17.78,64.25,64.25,0,0,1,2-14.41c.26-1,.47-2,.75-2.86s.58-1.72.84-2.51.51-1.5.73-2.17.53-1.24.75-1.78c.45-1,.8-1.85,1.06-2.45l.28-.63Z" style="fill:#263238"></path><path d="M157.62,432.3a2.76,2.76,0,0,1-.45.21l-1.32.5c-1.14.43-2.82,1-4.9,1.72-4.15,1.4-9.95,3.18-16.43,4.84s-12.42,2.91-16.74,3.69c-2.15.39-3.9.68-5.12.85l-1.4.19a2.57,2.57,0,0,1-.49,0,1.55,1.55,0,0,1,.48-.14l1.38-.29,5.09-1c4.29-.87,10.2-2.16,16.67-3.82s12.27-3.38,16.45-4.69l4.95-1.56,1.35-.41A1.55,1.55,0,0,1,157.62,432.3Z" style="fill:#263238"></path><path d="M114.22,178.53a10.33,10.33,0,0,0-8.64-3.14c-1.28.15-2.69.53-3.79-.14a8.46,8.46,0,0,1-1.8-2.09,5.23,5.23,0,0,0-7.53-.25A6.21,6.21,0,0,1,91,174.36c-2.51,1.3-5.25-3.41-7.75-2.09A5.91,5.91,0,0,1,86,174.48a2.69,2.69,0,0,1-.33,3.3c-2.35,2-6.17-2.58-8.79-.89-1.41.91-1.61,3.3-3.25,3.69a5.54,5.54,0,0,1-1.93-.16,4.32,4.32,0,0,0-4.6,3.68c-.2,1.86.73,4.13-.67,5.36-.87.76-2.18.63-3.32.45a11.09,11.09,0,0,0,1.19,4.93A6.74,6.74,0,0,0,62,203.91a14.3,14.3,0,0,0-3.91,4,5,5,0,0,0-.07,5.31,4.28,4.28,0,0,1,.7,1,2.51,2.51,0,0,1,0,1.36c-.37,1.74-1.14,3.42-1.1,5.19s1.35,3.73,3.12,3.59c.41,0,.87-.17,1.21.06a1.15,1.15,0,0,1,.42.81,11.86,11.86,0,0,1-.27,3.79,5.12,5.12,0,0,0,.55,3.7c.74,1,2.47,1.4,3.28.41q-.78,3-1.55,5.91c-.31,1.18-.56,2.59.29,3.46,1.11,1.13,3.14.25,4-1.08s1.09-3,2-4.32a10.06,10.06,0,0,0,1.08-1.61c.19-.48.26-1,.66-1.37.8-.65,2,.47,1.9,1.49a5.36,5.36,0,0,1-1.59,2.6c-.65.8-1.18,1.93-.66,2.82.25.43.71.71,1,1.15.83,1.51-1.38,3-1.65,4.66-.2,1.25.71,2.39,1.61,3.3,1.09,1.1,3.21,2,3.91.61.24-.48.16-1.07.35-1.57a3.86,3.86,0,0,1,1.23-1.41,8,8,0,0,0,2.41-4c-1.31,1.61-2.71,3.74-1.79,5.61a8.78,8.78,0,0,0,1.71,1.95c1.18,1.23,1.9,2.84,3.06,4.09s3.07,2.11,4.57,1.29a3.83,3.83,0,0,0,6.4,3.85,3.56,3.56,0,0,1,1-.93,2.84,2.84,0,0,1,1.5.05,8.3,8.3,0,0,0,8.06-3.18l-1.53-.54c3-.37,6.12-.79,8.62-2.48s4.14-5.08,2.85-7.82c-.55-1.18-1.62-2.4-1.13-3.61a3.24,3.24,0,0,1,2.14-1.51l10.71-3.7c1.73-.6,3.55-1.26,4.71-2.68s1.27-3.85-.25-4.87a9.89,9.89,0,0,1,3.73-4c1.78-1,3.85-1.52,5.68-2.49s3.5-2.74,3.38-4.81-3-3.68-4.39-2.19c.3-3.11,5.85-3.27,6.34-6.36.4-2.5-2.8-3.83-4.44-5.76.34-.87,1.23-1.43,1.6-2.29.77-1.8-1.09-3.61-2.86-4.47s-3.92-1.72-4.34-3.64,1.27-4.16.24-5.88a2.22,2.22,0,0,0-2.92-.74c-1.4-3.6-8.17-.94-10.12-4.27a1.36,1.36,0,0,1-.23-.87,1.55,1.55,0,0,1,.35-.7,15.55,15.55,0,0,1,3-2.26c1-.76,1.83-2,1.39-3.22s-2.66-1.15-2.64.11a2.76,2.76,0,0,0-4.23,1,3,3,0,0,0-3.73-.36,8.82,8.82,0,0,0-2.68,3" style="fill:#263238"></path><path d="M97,218.07c1.26-5.12,5.18-9.18,9.46-12.25a13.49,13.49,0,0,1,6-2.75,5.67,5.67,0,0,1,5.71,2.5l-.41,3.68c.29,5.86-4.37,10.65-6.69,16.05-1,2.35-1.85,5.18-4.22,6.13a5.5,5.5,0,0,1-3.93-.16C98,229.4,95.73,223.18,97,218.07Z" style="fill:#F52268"></path><path d="M95.67,245.12a11.78,11.78,0,0,1,1.71-15c-2-2.8-1.08-6.93,1.23-9.51s5.62-4,8.82-5.28c2.07-7.83,11.19-13,19-10.75,4.36-5.85,13.14-6.41,20-4.06a18.7,18.7,0,0,0,5.14,1.36,28.42,28.42,0,0,0,3.9-.36c7.16-.64,14,4.68,16.49,11.42a13,13,0,0,0,1.37,3.15,18.24,18.24,0,0,0,3.39,3,11.4,11.4,0,0,1,4,8.59c0,2.77-1,5.66,0,8.22.53,1.29,1.54,2.35,1.94,3.68,1.15,3.86-3.23,7.55-2.63,11.53.12.81.45,1.57.64,2.37a7,7,0,0,1-.64,4.89c-.61,1.14-1.57,2.16-1.7,3.45a11.16,11.16,0,0,0,.45,2.9c.37,2.38-5.1,11.23-7.19,12.42L110.83,275a11.38,11.38,0,0,1-8.35-10.17,4.12,4.12,0,0,0-.47-2.26,4.83,4.83,0,0,0-1.61-1.15c-3.82-2.27-4.05-7.66-3.45-12.07a5.23,5.23,0,0,0,0-1.85A6.76,6.76,0,0,0,95.67,245.12Z" style="fill:#263238"></path><path d="M113.07,246c.3-10.76,7.59-22.82,18.5-27.6,6.88-3,12.13-2.81,15.69-3.07a24.68,24.68,0,0,1,14.2,3.64c3.31.94,15.09,12.71,15.19,24.94.11,13.57-.29,30.16-2.45,40.16-4.34,20.13-20,21.86-20,21.86s0,9.37,0,9.37c-7.85,17.06-36,17.73-41.67-2.24Z" style="fill:#b5675e"></path><path d="M145.52,279.28a4,4,0,0,1,1.38-2.46,4.08,4.08,0,0,1,4.94-.29c1.5,1,1.69,2.79,1.41,4.76h0c-.84,1.16-1.46,2.3-2.89,2.43-.22,0-.44,0-.66,0a4.47,4.47,0,0,1-3-1.19A4,4,0,0,1,145.52,279.28Z" style="fill:#894943"></path><path d="M169.76,259.56a2.59,2.59,0,0,1-2.65,2.49,2.49,2.49,0,0,1-2.56-2.49,2.61,2.61,0,0,1,2.66-2.49A2.49,2.49,0,0,1,169.76,259.56Z" style="fill:#263238"></path><path d="M171.56,251.41c-.34.32-2.23-1.24-5-1.39s-4.93,1.14-5.21.78c-.14-.16.22-.75,1.15-1.36a7.18,7.18,0,0,1,4.2-1,6.83,6.83,0,0,1,4,1.53C171.47,250.64,171.73,251.27,171.56,251.41Z" style="fill:#263238"></path><path d="M154,272.64c0-.16,1.76-.37,4.6-.57.72,0,1.4-.14,1.55-.62a3.64,3.64,0,0,0-.36-2.15l-1.82-5.57c-2.51-7.91-4.29-14.41-4-14.51s2.62,6.24,5.13,14.16q.9,2.92,1.73,5.59a4.16,4.16,0,0,1,.21,2.83,1.79,1.79,0,0,1-1.23,1,4.54,4.54,0,0,1-1.22.1C155.72,272.88,154,272.8,154,272.64Z" style="fill:#263238"></path><path d="M154.16,305.9a51.9,51.9,0,0,1-26.88-8.75s6.45,14.71,26.87,13.93Z" style="fill:#894943"></path><path d="M171.06,242.21c-.51.66-2.63.08-5.15.15s-4.63.62-5.15,0c-.23-.31.08-1,1-1.61a7.62,7.62,0,0,1,4.14-1.21,7.54,7.54,0,0,1,4.15,1.11C171,241.24,171.28,241.89,171.06,242.21Z" style="fill:#263238"></path><path d="M138.69,258.82a2.62,2.62,0,0,0,2.47,2.68,2.5,2.5,0,0,0,2.73-2.31,2.61,2.61,0,0,0-2.47-2.67A2.49,2.49,0,0,0,138.69,258.82Z" style="fill:#263238"></path><path d="M133.17,250.41c.31.34,2.31-1.08,5.12-1s4.84,1.5,5.15,1.16c.15-.15-.17-.77-1.05-1.44a7.19,7.19,0,0,0-4.12-1.34,6.8,6.8,0,0,0-4.08,1.24C133.31,249.64,133,250.25,133.17,250.41Z" style="fill:#263238"></path><path d="M133,241.77c.55.64,2.72,0,5.33,0s4.8.51,5.31-.15c.23-.32-.1-1-1.06-1.58a8.49,8.49,0,0,0-8.57.08C133.06,240.8,132.75,241.45,133,241.77Z" style="fill:#263238"></path><path d="M115.28,265.39c.08-1.51-1.47-5.17-3-5.49-4-.84-11.16-.91-11.78,9.21C99.7,283,113.77,281,113.82,280.55S115,270.61,115.28,265.39Z" style="fill:#b5675e"></path><path d="M110.31,275.26c-.06,0-.25.16-.67.32a2.41,2.41,0,0,1-1.8-.07c-1.43-.63-2.52-3-2.43-5.53a8.07,8.07,0,0,1,.88-3.41,2.8,2.8,0,0,1,1.93-1.73,1.21,1.21,0,0,1,1.38.74c.16.4.06.67.13.7s.31-.21.24-.79a1.56,1.56,0,0,0-.5-.9,1.78,1.78,0,0,0-1.31-.43,3.38,3.38,0,0,0-2.65,2,8.27,8.27,0,0,0-1.07,3.8c-.08,2.79,1.18,5.49,3.15,6.19a2.57,2.57,0,0,0,2.23-.23C110.27,275.6,110.36,275.29,110.31,275.26Z" style="fill:#894943"></path><path d="M179.71,244.24c-2.7-1.9-4.36-4.38-4-7.66-1.88.45-3.63-2-4.63-3.7s-2.27-2.55-2.09-4.48a2.16,2.16,0,0,0-.07-1.13,2.39,2.39,0,0,0-1.47-1,9.3,9.3,0,0,1-5.76-6.78,19.6,19.6,0,0,1-9.57,1.05,7.5,7.5,0,0,1-12.65-1.24,6.75,6.75,0,0,1-4.68,3.08,20.21,20.21,0,0,1-5.76,0,7.94,7.94,0,0,1-5.71,8.7c-.5.13-1.08.25-1.33.7a2,2,0,0,0,.13,1.55,6.26,6.26,0,0,1-4.62,7.73,4.67,4.67,0,0,1-.81,7.28c-.52.27-1.2.61-1.15,1.19a1.2,1.2,0,0,0,.27.61,9.07,9.07,0,0,1,1.93,4.69c0,1.72-1.22,3.57-2.94,3.55a4.42,4.42,0,0,1,1.59,3.13c0,1.21-1.32,2.37-2.42,1.87-.47-.21-7.29-1.94-7.57-2.37-3.63-5.53,1.62-11.13,2.36-17.7a42.87,42.87,0,0,1,7-18.38,31.21,31.21,0,0,1,5.27-6.4,41.75,41.75,0,0,1,7.92-5.19c3.61-2,7.33-4,11.39-4.7,7.56-1.35,15.18,1.78,22,5.38a32.38,32.38,0,0,1,7.28,4.84,29.74,29.74,0,0,1,5.89,8.61c2.23,4.54,4,9.4,4.24,14.45" style="fill:#263238"></path><path d="M182.69,239.54A5.28,5.28,0,0,0,182,238c-.27-.48-.65-1-1-1.75a6.28,6.28,0,0,1-.64-2.62,21.26,21.26,0,0,1,.24-3.42,15.11,15.11,0,0,0,.11-4.12,11.44,11.44,0,0,0-1.59-4.46,11.76,11.76,0,0,0-1.59-2.05,18.65,18.65,0,0,0-2.1-1.74,8.37,8.37,0,0,1-2-1.93,11.33,11.33,0,0,1-1.18-2.67,18.51,18.51,0,0,0-8.22-9.94,16.53,16.53,0,0,0-3.27-1.43,14.5,14.5,0,0,0-3.61-.6,16.91,16.91,0,0,0-1.88,0c-.62.07-1.24.17-1.85.24a8.89,8.89,0,0,1-3.7-.19c-1.23-.31-2.42-.82-3.69-1.21a25.14,25.14,0,0,0-3.88-.9,26,26,0,0,0-4.06-.25,20.49,20.49,0,0,0-4.1.54,13.62,13.62,0,0,0-7.21,4.23l-.55.65.23-.07a16.09,16.09,0,0,0-19.23,10.9l.12-.13a43.58,43.58,0,0,0-5,2.3,14.71,14.71,0,0,0-4.15,3.34,9.53,9.53,0,0,0-2,4.68,6.53,6.53,0,0,0,1.08,4.75l0-.23a11.52,11.52,0,0,0-3.56,6.94,11.71,11.71,0,0,0,1.08,7,10.46,10.46,0,0,0,.85,1.42,14.06,14.06,0,0,1,.88,1.29,3.05,3.05,0,0,1,.43,1.38,8.75,8.75,0,0,1-.12,1.44,23,23,0,0,0-.13,5.26,11.15,11.15,0,0,0,1.15,4.07,6.86,6.86,0,0,0,2,2.36c.69.51,1.31.72,1.65,1a2.83,2.83,0,0,1,.48.44,1.56,1.56,0,0,0-.45-.48c-.33-.3-1-.53-1.62-1.05a6.73,6.73,0,0,1-2-2.34,11.15,11.15,0,0,1-1.09-4,22.7,22.7,0,0,1,.17-5.21,8.76,8.76,0,0,0,.13-1.48,3.23,3.23,0,0,0-.45-1.5c-.26-.46-.59-.88-.89-1.31a11.28,11.28,0,0,1-.82-1.39A11.51,11.51,0,0,1,94,237a11.2,11.2,0,0,1,3.48-6.72l.12-.11-.09-.12a6.18,6.18,0,0,1-1-4.5,9.23,9.23,0,0,1,2-4.49,14.47,14.47,0,0,1,4-3.24,46.68,46.68,0,0,1,5-2.28l.09,0,0-.1a15.68,15.68,0,0,1,18.72-10.6l.13,0,.1-.12.53-.63a13.26,13.26,0,0,1,7-4.1,20.31,20.31,0,0,1,4-.52,24,24,0,0,1,4,.24,23.29,23.29,0,0,1,3.82.88c1.24.38,2.44.89,3.71,1.21a9.6,9.6,0,0,0,1.92.3,11,11,0,0,0,1.92-.11c.63-.08,1.24-.18,1.85-.24s1.22-.08,1.82-.05a14.24,14.24,0,0,1,3.52.58,16,16,0,0,1,3.2,1.39,18.26,18.26,0,0,1,8.1,9.73,11.81,11.81,0,0,0,1.22,2.74,8.93,8.93,0,0,0,2.09,2,16.87,16.87,0,0,1,2.08,1.7,11.73,11.73,0,0,1,1.57,2,11.26,11.26,0,0,1,1.58,4.35,15.17,15.17,0,0,1-.07,4.06,19.3,19.3,0,0,0-.21,3.46,6.4,6.4,0,0,0,.69,2.67c.37.71.77,1.26,1,1.73a8.85,8.85,0,0,1,.58,1.09C182.64,239.41,182.68,239.54,182.69,239.54Z" style="fill:#455a64"></path><path d="M133.06,201.86s.37-.19,1.06-.48a9.28,9.28,0,0,1,3.07-.72,8.66,8.66,0,0,1,4.51.9,9,9,0,0,1,4,4,7.84,7.84,0,0,1,.61,1.6,1.77,1.77,0,0,1-.18,1.46l-.36.45.56-.13a5.73,5.73,0,0,1,4.26.74,5.48,5.48,0,0,1,2.21,2.68,6,6,0,0,1,.42,2.31,6.17,6.17,0,0,0,0,.86.8.8,0,0,0,.07-.21,3.31,3.31,0,0,0,.1-.64,5.68,5.68,0,0,0-.31-2.41,5.75,5.75,0,0,0-2.27-2.89,6,6,0,0,0-4.54-.83l.21.32a2.13,2.13,0,0,0,.26-1.8,7.53,7.53,0,0,0-.64-1.69,9.33,9.33,0,0,0-4.14-4.13,8.9,8.9,0,0,0-4.72-.85,8.58,8.58,0,0,0-3.1.87,5.79,5.79,0,0,0-.76.44C133.13,201.79,133.05,201.85,133.06,201.86Z" style="fill:#455a64"></path><path d="M109.77,216.59s.13.21.46.52a8.91,8.91,0,0,0,1.5,1.17,6.66,6.66,0,0,0,2.72,1,5,5,0,0,0,3.49-.86l-.3-.06.38.59.44.57a8.63,8.63,0,0,0,6.62,2.91,7.32,7.32,0,0,0,2.21-.38,2.35,2.35,0,0,0,.74-.35,12.2,12.2,0,0,1-3,.44,8.81,8.81,0,0,1-3.13-.65,8.24,8.24,0,0,1-3.17-2.25c-.14-.18-.29-.35-.42-.53l-.36-.56-.13-.19-.17.13a4.67,4.67,0,0,1-3.21.82,6.63,6.63,0,0,1-2.62-.84C110.5,217.25,109.82,216.53,109.77,216.59Z" style="fill:#455a64"></path><path d="M101.78,229.05a.94.94,0,0,0,0,.25,2.3,2.3,0,0,0,.28.69,3.68,3.68,0,0,0,2.15,1.6,7.08,7.08,0,0,0,4-.23c.71-.21,1.46-.43,2.23-.74a3.85,3.85,0,0,0,2-1.65l.1-.21-.33.08a15.78,15.78,0,0,0,4,2.68,7.19,7.19,0,0,0,3.87.6,5.18,5.18,0,0,0,2.45-1,2.94,2.94,0,0,0,.53-.49c.11-.13.16-.2.15-.2s-.26.22-.77.55a5.27,5.27,0,0,1-2.39.81,7.07,7.07,0,0,1-3.68-.66,16.34,16.34,0,0,1-3.86-2.65l-.21-.18-.12.26-.08.19a3.46,3.46,0,0,1-1.8,1.45,22.38,22.38,0,0,1-2.17.75,6.89,6.89,0,0,1-3.79.31,3.69,3.69,0,0,1-2.1-1.4A7.14,7.14,0,0,1,101.78,229.05Z" style="fill:#455a64"></path><path d="M89.54,178.84s.24,0,.65.15a3.13,3.13,0,0,1,1.49,1.08,4.28,4.28,0,0,1,.9,2.7,12.38,12.38,0,0,1-.71,3.74l-.07.22H92a7.91,7.91,0,0,1,4.71,1.71,6.15,6.15,0,0,1,2.37,5,5.67,5.67,0,0,1-2.26,4.5l-.48.34.59,0a7.21,7.21,0,0,1,5.13,2.58,6.85,6.85,0,0,1,1.54,4.34,7.43,7.43,0,0,1-.62,3c-.3.67-.53,1-.51,1s.08-.07.19-.22a5.28,5.28,0,0,0,.44-.73,7.2,7.2,0,0,0-.77-7.66A7.46,7.46,0,0,0,97,197.91l.1.36a6,6,0,0,0,2.44-4.82,6.14,6.14,0,0,0-.66-3A7.2,7.2,0,0,0,97,188.14a8.16,8.16,0,0,0-5-1.75l.17.22a12.61,12.61,0,0,0,.66-3.85,4.45,4.45,0,0,0-1-2.82,3.14,3.14,0,0,0-1.62-1.05,2.41,2.41,0,0,0-.51-.07C89.6,178.82,89.54,178.83,89.54,178.84Z" style="fill:#455a64"></path><path d="M63.26,207.54a1,1,0,0,0,.22.15,6.61,6.61,0,0,0,.68.35,9.74,9.74,0,0,0,2.75.78,11.1,11.1,0,0,0,4.38-.29,10.61,10.61,0,0,0,4.83-2.82l-.32,0a8.84,8.84,0,0,0,6,4.6A6.69,6.69,0,0,0,88.9,207l-.36,0a5.55,5.55,0,0,0,1.54,2.44,7.5,7.5,0,0,0,2.2,1.4,10.18,10.18,0,0,0,4.2.67,20.76,20.76,0,0,0,2.74-.3,5.29,5.29,0,0,0,1-.21,5.9,5.9,0,0,0-1,.09c-.63.06-1.56.17-2.73.18a10.06,10.06,0,0,1-4.06-.73,6,6,0,0,1-3.5-3.65l-.14-.47-.22.44a6.32,6.32,0,0,1-6.67,3.07,8.5,8.5,0,0,1-5.73-4.37l-.13-.24-.19.2a10.36,10.36,0,0,1-4.63,2.76,11,11,0,0,1-4.26.37A12.74,12.74,0,0,1,63.26,207.54Z" style="fill:#455a64"></path><path d="M76.72,228.55s0,.11.15.26a1.35,1.35,0,0,0,.76.39,6.42,6.42,0,0,0,3.09-.34,7.56,7.56,0,0,0,3.67-2.76,7.67,7.67,0,0,0,1.31-5.45v-.05l-.31.22a9,9,0,0,0,5.51,1.05,10.09,10.09,0,0,0,4.3-1.59,10.87,10.87,0,0,0,2.32-2,4.25,4.25,0,0,0,.67-.91A16.07,16.07,0,0,1,95,220a10.21,10.21,0,0,1-4.19,1.46,8.77,8.77,0,0,1-5.25-1l-.37-.2.06.42v0a7.29,7.29,0,0,1-4.67,7.87,6.79,6.79,0,0,1-3,.46A1.39,1.39,0,0,1,76.72,228.55Z" style="fill:#455a64"></path><path d="M119.77,180.93a11.47,11.47,0,0,1,.4,4.28,9.27,9.27,0,0,1-6,7.8,9.48,9.48,0,0,1-3.2.66h-.26l.06.25a11.84,11.84,0,0,1,.27,4.5,12.47,12.47,0,0,1-1,3.47,9.38,9.38,0,0,1-.63,1.2,1.07,1.07,0,0,1-.76.53.72.72,0,0,1-.55-.2c-.09-.1-.11-.19-.12-.18s0,.09.06.22a.75.75,0,0,0,.61.3,1.15,1.15,0,0,0,.92-.55,7.89,7.89,0,0,0,.71-1.21,12.21,12.21,0,0,0,.86-8.18l-.2.25a9.62,9.62,0,0,0,3.36-.67,9.79,9.79,0,0,0,4.56-3.64,9.68,9.68,0,0,0,1.56-4.52,9.38,9.38,0,0,0-.28-3.21,7.71,7.71,0,0,0-.28-.83C119.83,181,119.78,180.92,119.77,180.93Z" style="fill:#455a64"></path><path d="M145.62,276.3c.37-.16,1.26,2.36,4,3.41s5.37-.17,5.51.17c.09.15-.43.7-1.55,1.13a6.68,6.68,0,0,1-4.56,0,5.85,5.85,0,0,1-3.22-2.91C145.38,277.06,145.45,276.34,145.62,276.3Z" style="fill:#263238"></path><g style="opacity:0.30000000000000004"><path d="M80.66,349.63c-5.81,4.89-8.93,12.49-9.37,20.06s1.61,15.13,4.75,22l-.63-4.37A70.32,70.32,0,0,1,80.66,349.63Z"></path></g><path d="M179.23,310l3.82.39c13.2,4.46,12.15,3.8,27.92,19.77l26.8,29.3-36.93,31.1-22.22-34.85Z" style="fill:#F52268"></path><path d="M192,343.69c.14,0-.35,11.38-1.1,25.38s-1.48,25.36-1.62,25.35.35-11.37,1.1-25.38S191.9,343.69,192,343.69Z" style="fill:#263238"></path><path d="M191,364.17c0,.15-25.45.71-56.85,1.25s-56.85.87-56.86.72,25.45-.7,56.85-1.24S190.94,364,191,364.17Z" style="fill:#fff"></path><path d="M191,373.31c0,.14-25.45.7-56.85,1.24s-56.85.87-56.86.73,25.45-.7,56.85-1.25S190.94,373.16,191,373.31Z" style="fill:#fff"></path><path d="M322.84,482.19s-5.38-26.26-20.91-40.5l-80,2.45-22.45,8.36s-7.71,11.71-9.85,29.69" style="fill:#263238"></path><path d="M291.29,250.68s11.36,46.2-1.88,69.93l-12.49,3.75s-12.6-8-26.66-10.95l-3.71-31.71Z" style="fill:#263238"></path><path d="M212.3,235.47c5.87-11.59,11.93-23.67,23.92-28.67,10.69-4.46,21.22-3.61,32.24-.06,5.43,1.75,10.93,6,15,10,5.53,5.52,6.22,13.82,7.5,21.53,2.54,15.45-3.39,33.78-9.11,37.75l-65.6,14.38c-8.68-8.07-14.77-12.41-14.38-24.25C202.09,258.11,208.66,242.67,212.3,235.47Z" style="fill:#263238"></path><path d="M234.33,218.45l39-.66c12.07,1.52,16.49,17.86,14.46,29.86-2.25,13.33-5.53,29.51-9.39,38.94-7.76,19-23.45,17.93-23.45,17.93s-.11.29-1.6,6.12l-3.08,13.18c-8.7,14.79-24.41,8.95-39-22.32l14.35-72.76C226.73,223,230.66,218,234.33,218.45Z" style="fill:#ffbf9d"></path><path d="M277.1,264a2.58,2.58,0,0,1-3,2A2.48,2.48,0,0,1,272,263a2.59,2.59,0,0,1,3-2A2.49,2.49,0,0,1,277.1,264Z" style="fill:#263238"></path><path d="M281.5,258.57c-.39.25-2-1.61-4.7-2.24s-5,.26-5.25-.15c-.11-.18.35-.7,1.37-1.13a7.08,7.08,0,0,1,4.3-.29,6.82,6.82,0,0,1,3.64,2.2C281.54,257.79,281.69,258.46,281.5,258.57Z" style="fill:#263238"></path><path d="M252.33,257.49a2.6,2.6,0,0,1-3,2,2.48,2.48,0,0,1-2.07-2.89,2.61,2.61,0,0,1,3-2A2.49,2.49,0,0,1,252.33,257.49Z" style="fill:#263238"></path><path d="M255,251.56c-.39.26-2-1.61-4.7-2.24s-5,.26-5.25-.14c-.11-.18.35-.7,1.37-1.13a7.15,7.15,0,0,1,4.3-.3,6.88,6.88,0,0,1,3.64,2.2C255,250.79,255.14,251.45,255,251.56Z" style="fill:#263238"></path><path d="M260.6,271.9c0-.15,1.78,0,4.6.24.72.09,1.4.11,1.63-.34a3.59,3.59,0,0,0,0-2.16c-.26-1.84-.52-3.76-.81-5.77-1.08-8.2-1.69-14.88-1.36-14.92s1.47,6.58,2.56,14.77c.25,2,.49,3.94.72,5.78a4.16,4.16,0,0,1-.28,2.81,1.77,1.77,0,0,1-1.38.75,4.93,4.93,0,0,1-1.22-.11C262.29,272.45,260.57,272.06,260.6,271.9Z" style="fill:#263238"></path><path d="M254.92,304.52a51.42,51.42,0,0,1-24.73-13.23s3.28,15.32,23.44,18.11Z" style="fill:#ff9a6c"></path><path d="M250,275.74a4.47,4.47,0,0,1,4.1-1.12,5.83,5.83,0,0,1,4.57,3.78,3.63,3.63,0,0,1-.37,2.6c-.29.39-.09.21-.5.43a10.23,10.23,0,0,1-4.65,1.57,4.39,4.39,0,0,1-4.12-2.72A4.47,4.47,0,0,1,250,275.74Z" style="fill:#ff9a6c"></path><path d="M258.27,282.07c-.43.16-1.32-2.74-4.44-4s-6.1,0-6.24-.43c-.1-.17.51-.78,1.8-1.21a7.56,7.56,0,0,1,5.17.19,6.57,6.57,0,0,1,3.53,3.44C258.57,281.21,258.47,282,258.27,282.07Z" style="fill:#263238"></path><path d="M246.09,240.59c.26-.77,3-.47,6.32-.93s5.9-1.42,6.35-.75c.2.32-.25,1.05-1.3,1.8a11.05,11.05,0,0,1-9.65,1.28C246.6,241.54,246,241,246.09,240.59Z" style="fill:#263238"></path><path d="M274.17,245.41c.69-.48,2.62.67,5.12,1.32s4.73.73,5.06,1.5c.14.36-.35.9-1.42,1.25a7.93,7.93,0,0,1-4.42,0,7.83,7.83,0,0,1-3.78-2.25C274,246.36,273.86,245.65,274.17,245.41Z" style="fill:#263238"></path><path d="M273.37,215.55c0,.15,0,.3,0,.45h-.08C273.31,215.85,273.34,215.7,273.37,215.55Z" style="fill:#263238"></path><path d="M291.08,233.23A36.68,36.68,0,0,0,286.22,220c-4.35-6.62-7.35-5.12-11.55-4.21l-.49.06c0-.1,0-.19.05-.28l0-.83a57.11,57.11,0,0,0-29.36-6.66c-7.53.34-18,5.1-23.29,10.49-.1.1-.21.2-.3.31C209.5,232.34,191,258.59,194.2,330.65l12.72,2.61c.13,3.31,7.44-5.89,7.44-5.89,1.14.29,9.14-21.11,10.88-29.87,1.11-5.54.35-20.92,1.41-26.48,1.82-9.51,2-16.51,5.53-24.89,5,.75,13.1-.68,17.4-3.57,5.17-3.48,9.1-8.47,12.93-13.38A27.34,27.34,0,0,1,253,242.86a7.34,7.34,0,0,0,6.62-.29,16.54,16.54,0,0,0,5.1-4.55,45,45,0,0,0,7.77-14.64,58.15,58.15,0,0,1-8.85,22.07c1.48,0,2.84.74,4.19,1.33s3,1,4.27.26a5.31,5.31,0,0,0,1.83-2.29,60.73,60.73,0,0,0,6.13-19.67,62.44,62.44,0,0,1,1.43,12.24,22.1,22.1,0,0,1-3.16,11.75,1.78,1.78,0,0,0,2.42.66,4.25,4.25,0,0,0,1.74-2.16c1.42-3.13,1.77-6.63,2.09-10,1,4,.53,8.18.56,12.3s.65,8.5,3.37,11.6a54.1,54.1,0,0,0,3.65-15.1C292.65,242.05,291.84,237.46,291.08,233.23Z" style="fill:#263238"></path><path d="M261.18,257.5a19,19,0,0,0,.3-2.87,11.43,11.43,0,0,0-.48-3.32,11.68,11.68,0,0,0-2-3.93,11.43,11.43,0,0,0-4.19-3.32,11.61,11.61,0,0,0-6-1.05,10.91,10.91,0,0,0-3.23.79,11.63,11.63,0,0,0-1.55.75,12.86,12.86,0,0,0-1.44,1,11.55,11.55,0,0,0-3.46,13.23,12.11,12.11,0,0,0,.76,1.58,14.28,14.28,0,0,0,1,1.42,10.64,10.64,0,0,0,2.44,2.26A11.63,11.63,0,0,0,258,262.81a11.2,11.2,0,0,0,2.05-2.66,19.39,19.39,0,0,0,1.14-2.65s0,.06,0,.19-.09.31-.15.54a6.11,6.11,0,0,1-.31.85,6.88,6.88,0,0,1-.52,1.13,11.24,11.24,0,0,1-2,2.74,11.81,11.81,0,0,1-15,1.37,10.84,10.84,0,0,1-2.51-2.33,12.55,12.55,0,0,1-1-1.45,12.78,12.78,0,0,1-.79-1.62,12,12,0,0,1-.46-7.4,11.83,11.83,0,0,1,4-6.22,11.6,11.6,0,0,1,1.48-1,12.9,12.9,0,0,1,1.59-.77,11,11,0,0,1,3.33-.79,11.9,11.9,0,0,1,6.17,1.09,11.76,11.76,0,0,1,4.25,3.44,11.64,11.64,0,0,1,2,4,11.38,11.38,0,0,1,.44,3.39,7.5,7.5,0,0,1-.1,1.24,5.44,5.44,0,0,1-.15.89l-.14.55C261.2,257.44,261.18,257.5,261.18,257.5Z" style="fill:#455a64"></path><path d="M290.53,265.17a18.69,18.69,0,0,0,.3-2.86,11.45,11.45,0,0,0-.48-3.33,11.77,11.77,0,0,0-2-3.93,11.64,11.64,0,0,0-4.19-3.32,11.51,11.51,0,0,0-6-1,10.89,10.89,0,0,0-3.23.78,14.75,14.75,0,0,0-1.55.75,14.32,14.32,0,0,0-1.44,1,11.55,11.55,0,0,0-3.46,13.23,12.89,12.89,0,0,0,.76,1.59,12.73,12.73,0,0,0,1,1.41,10.66,10.66,0,0,0,2.43,2.27,11.59,11.59,0,0,0,11,1.18,11.44,11.44,0,0,0,3.7-2.43,11.2,11.2,0,0,0,2.05-2.66,19.39,19.39,0,0,0,1.14-2.65s0,.07,0,.19l-.15.54a6.18,6.18,0,0,1-.31.86,7.73,7.73,0,0,1-.52,1.13,11.72,11.72,0,0,1-5.78,5.25,11.7,11.7,0,0,1-5.39.91,11.83,11.83,0,0,1-5.91-2.06,11.23,11.23,0,0,1-2.51-2.32,13.47,13.47,0,0,1-1-1.45,13.61,13.61,0,0,1-.79-1.63,12,12,0,0,1-.46-7.4,11.87,11.87,0,0,1,4-6.22,12.7,12.7,0,0,1,1.48-1,12.83,12.83,0,0,1,1.59-.76,11,11,0,0,1,3.33-.8,11.9,11.9,0,0,1,6.17,1.1,11.74,11.74,0,0,1,4.25,3.43,11.42,11.42,0,0,1,2,4,11.28,11.28,0,0,1,.44,3.38,7.5,7.5,0,0,1-.1,1.24,5.59,5.59,0,0,1-.15.9c-.06.22-.1.4-.13.54Z" style="fill:#455a64"></path><path d="M269.31,256a10.37,10.37,0,0,1-1.05-.66,7.74,7.74,0,0,0-2.78-1,7.9,7.9,0,0,0-2.93.17,10.08,10.08,0,0,1-1.2.35,3,3,0,0,1,1.13-.59,6.74,6.74,0,0,1,5.91.84A2.86,2.86,0,0,1,269.31,256Z" style="fill:#455a64"></path><path d="M219.45,310.3l-36.76,12.53,14.82,59.47s-11.72,51.25-12,63.93S196.7,460,196.7,460s45.68,5,77.54-.51c15.29-2.67,24.59-4.85,30.14-6.39a8.7,8.7,0,0,0,6.13-10.45c-.21-.86-.44-1.76-.7-2.65-1.55-5.25-1.55-35.25-1.55-35.25l2.16-79.8-44.84-13.3C250,317.39,229.56,320.1,219.45,310.3Z" style="fill:#455a64"></path><g style="opacity:0.30000000000000004"><path d="M298.89,425.62c-3-.05-5.79,1.39-8.46,2.75-14.68,7.49-30,14-46,17.74s-32.88,4.82-49,1.47l-7.18,3.22c7.08,6,16.69,8.1,25.93,9.17a167.76,167.76,0,0,0,47.2-1.2c8-1.34,16.55-3.73,21.18-10.34,2-2.91,3.24-6.56,6.15-8.58s6.45-1.89,9.78-2.62,6.93-3.08,6.77-6.48C305.1,427.76,301.89,425.66,298.89,425.62Z"></path></g><g style="opacity:0.30000000000000004"><path d="M199.86,377.6a269,269,0,0,0,11,29.78L203.42,406Z"></path></g><path d="M182.69,322.83a24.22,24.22,0,0,0-17,16.7c-4,13.92-2.47,41.75-2.47,41.75s-5,50.4,9.59,61.55,34.95,17.32,66.8,14.84,47.32-18.25,47.32-18.25l-4.33-31.85-36.8,6.18L203.42,406l-4.28-34.08" style="fill:#455a64"></path><path d="M199.14,371.94l.09.57c.05.4.13,1,.23,1.71.2,1.52.5,3.75.88,6.65.74,5.82,1.84,14.34,3.22,25.13l-.12-.12,42.38,7.67h-.07l36.8-6.21.24,0,0,.24c1.38,10.12,2.84,20.79,4.35,31.85l0,.13-.09.08A54.48,54.48,0,0,1,276.79,447a81.26,81.26,0,0,1-11.86,5.52,96.26,96.26,0,0,1-26.5,5.48c-12.77.92-25.45.54-37.34-2.1a75.71,75.71,0,0,1-16.93-5.81c-1.3-.67-2.63-1.29-3.87-2.05L178.4,447l-1.81-1.18c-1.23-.75-2.36-1.64-3.52-2.46a19.45,19.45,0,0,1-1.64-1.39c-.5-.52-1-1.06-1.41-1.61a27.31,27.31,0,0,1-3.81-7.44,56.11,56.11,0,0,1-2.06-7.88c-.52-2.62-.88-5.24-1.16-7.83s-.47-5.14-.59-7.67a209.5,209.5,0,0,1,.62-28.25v0a225.77,225.77,0,0,1,.31-27.86,88.35,88.35,0,0,1,1.58-11.34,26.45,26.45,0,0,1,3.52-8.94,23.44,23.44,0,0,1,5.13-5.72,25.19,25.19,0,0,1,4.76-3,18.89,18.89,0,0,1,4.37-1.58s-.38.1-1.12.35a26.73,26.73,0,0,0-3.2,1.33,25.35,25.35,0,0,0-4.71,3.05,23.51,23.51,0,0,0-5,5.7,26.33,26.33,0,0,0-3.44,8.89,87.72,87.72,0,0,0-1.54,11.3,232.44,232.44,0,0,0-.23,27.82h0v0a212.44,212.44,0,0,0-.56,28.19c.13,2.52.32,5.07.61,7.64s.64,5.18,1.16,7.79a56.17,56.17,0,0,0,2,7.81A27.19,27.19,0,0,0,170.4,440c.44.53.89,1.06,1.37,1.55a17.29,17.29,0,0,0,1.6,1.35c1.15.82,2.27,1.69,3.49,2.44l1.8,1.17,1.87,1.07c1.24.75,2.56,1.37,3.85,2a75.2,75.2,0,0,0,16.82,5.76c11.82,2.62,24.45,3,37.19,2.08A95.91,95.91,0,0,0,264.75,452a80.76,80.76,0,0,0,11.79-5.48,53.73,53.73,0,0,0,10.2-7.31l-.07.21c-1.5-11.06-2.94-21.74-4.31-31.86l.27.2L245.82,414h-.07l-42.36-7.79-.11,0V406c-1.33-10.8-2.37-19.32-3.09-25.16-.35-2.9-.61-5.13-.8-6.65-.08-.75-.15-1.32-.19-1.71S199.14,371.94,199.14,371.94Z" style="fill:#263238"></path><path d="M185.14,413.93s.16-.24.53-.61a21.27,21.27,0,0,1,1.64-1.45,28.78,28.78,0,0,1,6.16-3.77,24.86,24.86,0,0,1,6.95-2,17.07,17.07,0,0,1,2.19-.15,3,3,0,0,1,.81.06c0,.09-1.14.14-2.94.45a29.34,29.34,0,0,0-6.8,2.1,35.37,35.37,0,0,0-6.15,3.6C186.05,413.24,185.19,414,185.14,413.93Z" style="fill:#263238"></path><path d="M286.19,434.05s3.49,1.55,11.72-2.57,9.41-4.87,9.41-4.87-2.49,2.82-1.3,5.41c0,0,.54,1,5.41-.65s6-2.59,6.5-3.24,3.14-1.84,0-6.17c0,0,2.05-2.38-1-5a5.45,5.45,0,0,0-1.73-4.33s1.3-2.49-.86-3.89-5.36-1.51-5.73-1.73-13.34,4.87-13.34,4.87l-11.49,4.55Z" style="fill:#ffbf9d"></path><path d="M155.35,377.06s-5.42-4.09-4.23-6.78l1.19-2.69s-3.24-4.33-2.06-6.74a14.22,14.22,0,0,1,4.21-4.47s-1.53-3.18-.43-5.81a26.83,26.83,0,0,1,3.8-6.35l9.64-10.1h0a4.92,4.92,0,0,1,1.51,5.33,18.11,18.11,0,0,1-2.13,4.86,31.14,31.14,0,0,1-3.8,4.39s22,.52,23.32,3-1.51,4.85-2,5.26-19.24,2-19.24,2,21.8,2.65,23.31,5.49-.58,4.45-1.85,5a39.75,39.75,0,0,1-5.1.68s4.6,5.78-2.24,6.63a47.55,47.55,0,0,1-6.66.21l-10-.37v.95s9.67,2.25,9.52,4.19-1.19,3.36-6.42,2.87c-2.42-.22-5.7-.38-7.64-1.15a4.25,4.25,0,0,1-2.7-4Z" style="fill:#ffbf9d"></path><path d="M161.37,368.63c-.06.28,4.75,1.46,10.84,1.82s11-.23,11-.52-4.91-.2-10.92-.56S161.43,368.32,161.37,368.63Z" style="fill:#ff9a6c"></path><path d="M157.76,358.66c0,.14.47.44,1.37.62a14.41,14.41,0,0,0,3.49.17c2.68-.23,4.7-.07,4.81-.3s-.47-.44-1.37-.62a14.41,14.41,0,0,0-3.49-.17C159.89,358.59,157.87,358.43,157.76,358.66Z" style="fill:#ff9a6c"></path><path d="M158.39,347.89c-.13.27,1.08,1.09,2.82,1.43s3.16.06,3.15-.23-1.35-.51-2.94-.83S158.51,347.61,158.39,347.89Z" style="fill:#ff9a6c"></path><path d="M255.15,337.46s-2.58-9.93-3.77-16a12.72,12.72,0,0,1,.15-4.9A21.47,21.47,0,0,1,260.74,303l1.65-1.11L273,279.3s1.64-3.12,4.77-3.42,1.48,1.78,1.48,1.78l-3.72,9.23-1.34,8.64,5.49-10.27,2.1-6s-.78-3.72.73-6.4a5.42,5.42,0,0,1,4.45-2.68,79.94,79.94,0,0,1,.63,8.19c-.15,1.64-1.49,9.82-2.38,11.31s-6.85,13.18-6.85,13.18-8.49,17.78-8.93,19,3.53,9.83,3.53,9.83Z" style="fill:#ffbf9d"></path><path d="M255.15,337.46l.31-.11.89-.31,3.46-1.16,13.07-4.32-.09.21c-.79-1.71-1.6-3.55-2.38-5.54a26.13,26.13,0,0,1-1.07-3.13,4.9,4.9,0,0,1-.16-.88,1.29,1.29,0,0,1,.07-.49l.19-.39.74-1.6,6.62-14.12c1.15-2.56,2.52-5.13,3.89-7.79l4.26-8.21a22.65,22.65,0,0,0,1.25-4.53c.31-1.59.6-3.2.85-4.83a17,17,0,0,0,.27-2.44c0-.82-.07-1.65-.14-2.49-.14-1.68-.32-3.37-.51-5.08l.25.23a5.48,5.48,0,0,0-2.6.82,5,5,0,0,0-1.82,2.12,10.2,10.2,0,0,0-.5,5.83v.07l0,.07-2.1,5.95v0l-.44.83-5.05,9.44-.72,1.34.24-1.5q.68-4.38,1.34-8.64v0l0,0c1.26-3.14,2.51-6.22,3.72-9.23v0l0,0a1.67,1.67,0,0,0,.37-.92c0-.26-.28-.4-.64-.46a4.84,4.84,0,0,0-2.19.27,6.79,6.79,0,0,0-3.31,2.88l-3.78,8L262.58,302l0,.06,0,0a37.59,37.59,0,0,0-3.64,2.61,22.26,22.26,0,0,0-3,3,20.93,20.93,0,0,0-3.69,6.8,14.93,14.93,0,0,0-.72,6.7c.38,2.06.81,4,1.19,5.65.76,3.4,1.4,6,1.83,7.84.21.88.38,1.56.49,2l.12.52a.84.84,0,0,1,0,.18.51.51,0,0,1-.06-.17l-.15-.51q-.19-.72-.54-2c-.47-1.78-1.15-4.41-2-7.8-.4-1.7-.83-3.58-1.24-5.67a15.26,15.26,0,0,1,.68-6.83,21.4,21.4,0,0,1,3.72-6.95,23,23,0,0,1,3-3.08,38.47,38.47,0,0,1,3.66-2.65l-.07.08c2.12-4.56,4.41-9.48,6.84-14.72l3.79-8.09a7.21,7.21,0,0,1,3.55-3.09,5.3,5.3,0,0,1,2.44-.3,1.66,1.66,0,0,1,.66.24.84.84,0,0,1,.39.67,2,2,0,0,1-.47,1.27l0-.06q-1.83,4.51-3.72,9.23l0-.06q-.66,4.26-1.34,8.64l-.49-.17q2.49-4.65,5.05-9.44l.44-.83v0c.72-2,1.43-4.07,2.1-5.95v.13a10.65,10.65,0,0,1,.54-6.15,5.49,5.49,0,0,1,2-2.33,5.81,5.81,0,0,1,2.88-.9h.23l0,.23c.2,1.71.38,3.41.51,5.1.07.84.13,1.68.14,2.53a17,17,0,0,1-.28,2.52c-.25,1.64-.54,3.25-.86,4.84-.16.8-.34,1.59-.53,2.37a11,11,0,0,1-.79,2.32l-4.26,8.18c-1.38,2.65-2.75,5.2-3.91,7.76-2.4,5.06-4.63,9.78-6.66,14.07l-.75,1.59-.19.39a.87.87,0,0,0,0,.35,4.63,4.63,0,0,0,.14.8,26.83,26.83,0,0,0,1,3.1c.77,2,1.57,3.83,2.34,5.53l.06.15-.15,0L259.77,336l-3.45,1.09-.88.26A1.53,1.53,0,0,1,255.15,337.46Z" style="fill:#ff9a6c"></path><path d="M274.07,293.36a3,3,0,0,1,.24,1.43,8.82,8.82,0,0,1-2.63,6.34c-.65.62-1.15.88-1.18.83a12,12,0,0,0,3.57-8.6Z" style="fill:#ff9a6c"></path><path d="M262.32,321.12a10.94,10.94,0,0,1,3.34.21,10.44,10.44,0,0,1,3.27.72,10.94,10.94,0,0,1-3.34-.21A10.78,10.78,0,0,1,262.32,321.12Z" style="fill:#ff9a6c"></path><g style="opacity:0.30000000000000004"><path d="M258.72,409.22c1.14,5.2,2.56,10.29,5.78,14.52a22.27,22.27,0,0,0,13.05,8.57A16.15,16.15,0,0,0,292.22,428C280,427.23,265.89,419.19,258.72,409.22Z"></path></g><path d="M291.06,350.83l-5.74,7.66L274,331.4l-26.28,9,1.87,7.66-3.4,15.09a25.6,25.6,0,0,0,.28,12.39c3.95,14.31,14.68,48.29,28.72,53.2,17.87,6.26,28.59-9.52,34.84-25s19-73.25.39-78.76" style="fill:#455a64"></path><path d="M310.42,325l.74.23a9,9,0,0,1,2,1,13.92,13.92,0,0,1,4.87,7c2.59,7.12,2.84,18.24,1.24,31.51a203.42,203.42,0,0,1-3.86,21.58c-1.84,7.65-4,15.9-8,23.84A54.48,54.48,0,0,1,300,421.65a31.13,31.13,0,0,1-5.19,4.79,21.15,21.15,0,0,1-6.47,3.2,21.64,21.64,0,0,1-14.54-1.18,21.09,21.09,0,0,1-6-4.66,44.64,44.64,0,0,1-4.65-6.08A106.73,106.73,0,0,1,254.36,400c-2.42-6-4.45-12-6.25-17.91q-.65-2.22-1.29-4.41a45.15,45.15,0,0,1-1.11-4.41,25.71,25.71,0,0,1,0-8.88c1.22-5.7,2.5-11.13,3.67-16.38v.11c-.64-2.63-1.26-5.18-1.87-7.67l0-.19.18-.07,26.31-9,.15-.06.07.15,11.23,27.13-.15,0c1.91-2.53,3.36-4.43,4.33-5.71l1.1-1.43c.25-.32.38-.47.38-.47l-.34.5c-.25.33-.6.82-1.06,1.45l-4.27,5.77-.09.12-.07-.14c-2.52-6-6.38-15.17-11.39-27.06l.22.1-26.27,9,.14-.25q.91,3.74,1.88,7.66v.1c-1.16,5.24-2.44,10.71-3.63,16.36a25.23,25.23,0,0,0,0,8.71,40.92,40.92,0,0,0,1.1,4.36l1.29,4.4c1.8,5.89,3.83,11.88,6.25,17.87a106.06,106.06,0,0,0,8.79,17.62,43.76,43.76,0,0,0,4.59,6A20.65,20.65,0,0,0,274,428a20,20,0,0,0,20.5-2,30,30,0,0,0,5.1-4.71A54,54,0,0,0,307,410c4-7.88,6.15-16.08,8-23.71a206.52,206.52,0,0,0,3.91-21.53c1.65-13.25,1.45-24.32-1.06-31.41a13.93,13.93,0,0,0-4.74-7A11,11,0,0,0,310.42,325Z" style="fill:#263238"></path><g style="opacity:0.30000000000000004"><path d="M303.62,377.69c-2.4-3.92-6.11-6.81-9.58-9.82S287.37,362,286,357.65l-.63.59a47.76,47.76,0,0,0,8.79,16.47c4,4.94,8.53,9.82,10.11,16C306.82,386.91,306,381.6,303.62,377.69Z"></path></g><path d="M305,394.53a32.18,32.18,0,0,0-1.7-5.78,36.4,36.4,0,0,0-3.13-5.74c-1.35-2.07-3-4.21-4.8-6.45a72.28,72.28,0,0,1-7.86-12.39,35.72,35.72,0,0,1-1.72-4.11c-.19-.49-.29-.89-.37-1.15s-.1-.41-.08-.42A12,12,0,0,1,286,360c.39,1,1,2.35,1.87,4a80.58,80.58,0,0,0,7.94,12.24c1.77,2.24,3.45,4.41,4.79,6.51a33.73,33.73,0,0,1,3.07,5.86,21.34,21.34,0,0,1,1.21,4.29,11.53,11.53,0,0,1,.14,1.21C305,394.38,305,394.53,305,394.53Z" style="fill:#263238"></path><g style="opacity:0.30000000000000004"><path d="M317.25,329.61c-2.63-3.7-9.86-10.57-14.38-10.11l-15.95,20.08a7.88,7.88,0,0,0,9-1.13c2,2.49-1.1,6.71.81,9.29,1.25,1.69,3.85,1.49,5.81.72,1.46,1.88,4.38,2,6.51,1s3.63-3,5.05-4.93a2.11,2.11,0,0,0,2.59.23,4.7,4.7,0,0,0,1.73-2.17A13.15,13.15,0,0,0,317.25,329.61Z"></path></g><path d="M320.18,327.61s-.49-6.21-3.16-6.62l-2.67-.41s-1.75-4.64-4.2-4.92a13.16,13.16,0,0,0-5.53,1.06s-1.71-2.75-4.28-3.19a24.15,24.15,0,0,0-6.78-.2L281,315.8h0a4.52,4.52,0,0,0,3.38,3.8,16.31,16.31,0,0,0,4.81.74,27.8,27.8,0,0,0,5.26-.76S284,336.82,285.28,339.1s4.49,1.22,5,1.08,11-13.9,11-13.9-8.7,18.17-7.25,20.74,4.07.88,4.79,1,3-3.61,3-3.61,3.2,6.61,7.23,1.74a36.55,36.55,0,0,0,3.2-4.74l3.78-8.22,1.43-.47s-3.59,9.29-2,10.13,3.19.73,5.39-3.55c1-2,2.51-4.59,2.88-6.47a3.9,3.9,0,0,0-1.72-4Z" style="fill:#b5675e"></path><path d="M311.25,328c.24.09-1.22,4.39-3.94,9.27s-5.61,8.4-5.81,8.24,2.26-3.9,4.94-8.72S311,327.93,311.25,328Z" style="fill:#894943"></path><path d="M304.7,319.51c.13,0,.11.57-.19,1.36a13.32,13.32,0,0,1-1.59,2.78c-1.5,2-2.37,3.6-2.6,3.57s-.11-.58.19-1.36a13.07,13.07,0,0,1,1.59-2.78C303.6,321.12,304.47,319.47,304.7,319.51Z" style="fill:#894943"></path><path d="M296.12,315.57c.27,0,.31,1.37-.28,2.88s-1.52,2.48-1.74,2.33.27-1.29.81-2.68S295.85,315.53,296.12,315.57Z" style="fill:#894943"></path><g style="opacity:0.30000000000000004"><path d="M199.44,350.52a3.15,3.15,0,0,0,3.3,3c3.14,0,27.69-4.25,28.26-4.83s-4.85-33.07-4.85-33.07Z"></path></g><path d="M226.46,268.45,193.83,309c-.75,11.45-1.35,25.25-.36,36.69.15,1.72.47,3.7,1.94,4.6,1.18.72,2.68.5,4,.25L229.31,345C227.38,322.54,224,297.66,226.46,268.45Z" style="fill:#263238"></path></g></svg>
